# xmcd
# 
# Track frame offsets:
#     150
#     21757
#     44871
#     67058
#     92357
#     111154
#     133529
#     152837
#     171680
#     190389
#     213244
#     240250
#     269552
#     289168
#     329633
# 
# Disc length: 4466
# 
# Revision: 4
# Processed by: cddbd v1.5.2PL0 Copyright (c) Steve Scherf et al.
# Submitted via: fre:ac v1.1beta1pre5
# 
DISCID=e911700f
DTITLE=Various Artist - The Rough Guide To African Blues
DYEAR=2007
DGENRE=World music
TTITLE0=Mariem Hassan - La Tumchi Anni
TTITLE1=Nuru Kane - Goree
TTITLE2=Corey Harris with Ali Farka Touré - Special Rider Blues
TTITLE3=Boubacar Traoré - Mariama Kaba
TTITLE4=Oumou Sangare - Mogo Ti Diya Bee Ya
TTITLE5=Etran Finatawa - Iriarer
TTITLE6=Afel Bocoum - Jaman Moro
TTITLE7=Rokia Traoré - Kele Mandi
TTITLE8=Ayaléw Mèsfin and Black Lion Band - Feqer Aydelem Wey
TTITLE9=Djelimady Tounkara - Sigui
TTITLE10=Bob Brozman and Djeli Moussa Diawara - Maloyan Devil
TTITLE11=Rasha - Azara Alhai
TTITLE12=Daby Balde - Waino Blues
TTITLE13=Baaba Maal and Mansour Seck - Bibbe Leydy
TTITLE14=Various Artist - Data
EXTD=
EXTT0=
EXTT1=
EXTT2=
EXTT3=
EXTT4=
EXTT5=
EXTT6=
EXTT7=
EXTT8=
EXTT9=
EXTT10=
EXTT11=
EXTT12=
EXTT13=
EXTT14=
PLAYORDER=
